<svg width="571" height="643" viewBox="0 0 571 643" fill="none" xmlns="http://www.w3.org/2000/svg">
<g clip-path="url(#clip0_23929_111123)">
<path d="M72.0372 0.96875H0.740234V72.2904H72.0372V0.96875Z" stroke="#AB5D16" stroke-width="1.07034"/>
<path d="M143.059 0.96875H71.7617V72.2904H143.059V0.96875Z" stroke="#AB5D16" stroke-width="1.07034"/>
<path d="M72.0372 72.2109H0.740234V143.533H72.0372V72.2109Z" stroke="#AB5D16" stroke-width="1.07034"/>
<path d="M143.059 72.2109H71.7617V143.533H143.059V72.2109Z" stroke="#AB5D16" stroke-width="1.07034"/>
<path d="M72.0372 143.219H0.740234V214.54H72.0372V143.219Z" stroke="#AB5D16" stroke-width="1.07034"/>
<path d="M143.059 143.219H71.7617V214.54H143.059V143.219Z" stroke="#AB5D16" stroke-width="1.07034"/>
<path d="M72.0372 214.453H0.740234V285.775H72.0372V214.453Z" stroke="#AB5D16" stroke-width="1.07034"/>
<path d="M143.059 214.453H71.7617V285.775H143.059V214.453Z" stroke="#AB5D16" stroke-width="1.07034"/>
<path d="M569.972 285.742H0.744141V356.844H569.972V285.742Z" stroke="#AB5D16" stroke-width="1.07034"/>
<path d="M214.352 0.96875H143.055V72.2904H214.352V0.96875Z" stroke="#AB5D16" stroke-width="1.07034"/>
<path d="M285.371 0.96875H214.074V72.2904H285.371V0.96875Z" stroke="#AB5D16" stroke-width="1.07034"/>
<path d="M214.352 72.2109H143.055V143.533H214.352V72.2109Z" stroke="#AB5D16" stroke-width="1.07034"/>
<path d="M285.371 72.2109H214.074V143.533H285.371V72.2109Z" stroke="#AB5D16" stroke-width="1.07034"/>
<path d="M214.352 143.219H143.055V214.54H214.352V143.219Z" stroke="#AB5D16" stroke-width="1.07034"/>
<path d="M285.371 143.219H214.074V214.54H285.371V143.219Z" stroke="#AB5D16" stroke-width="1.07034"/>
<path d="M214.352 214.453H143.055V285.775H214.352V214.453Z" stroke="#AB5D16" stroke-width="1.07034"/>
<path d="M285.371 214.453H214.074V285.775H285.371V214.453Z" stroke="#AB5D16" stroke-width="1.07034"/>
<path d="M356.629 0.96875H285.332V72.2904H356.629V0.96875Z" stroke="#AB5D16" stroke-width="1.07034"/>
<path d="M427.65 0.96875H356.354V72.2904H427.65V0.96875Z" stroke="#AB5D16" stroke-width="1.07034"/>
<path d="M356.629 72.2109H285.332V143.533H356.629V72.2109Z" stroke="#AB5D16" stroke-width="1.07034"/>
<path d="M427.65 72.2109H356.354V143.533H427.65V72.2109Z" stroke="#AB5D16" stroke-width="1.07034"/>
<path d="M356.629 143.219H285.332V214.54H356.629V143.219Z" stroke="#AB5D16" stroke-width="1.07034"/>
<path d="M427.65 143.219H356.354V214.54H427.65V143.219Z" stroke="#AB5D16" stroke-width="1.07034"/>
<path d="M356.629 214.453H285.332V285.775H356.629V214.453Z" stroke="#AB5D16" stroke-width="1.07034"/>
<path d="M427.65 214.453H356.354V285.775H427.65V214.453Z" stroke="#AB5D16" stroke-width="1.07034"/>
<path d="M498.943 0.96875H427.646V72.2904H498.943V0.96875Z" stroke="#AB5D16" stroke-width="1.07034"/>
<path d="M569.965 0.96875H498.668V72.2904H569.965V0.96875Z" stroke="#AB5D16" stroke-width="1.07034"/>
<path d="M498.941 72.2109H427.645V143.533H498.941V72.2109Z" stroke="#AB5D16" stroke-width="1.07034"/>
<path d="M569.965 72.2109H498.668V143.533H569.965V72.2109Z" stroke="#AB5D16" stroke-width="1.07034"/>
<path d="M498.941 143.219H427.645V214.54H498.941V143.219Z" stroke="#AB5D16" stroke-width="1.07034"/>
<path d="M569.965 143.219H498.668V214.54H569.965V143.219Z" stroke="#AB5D16" stroke-width="1.07034"/>
<path d="M498.941 214.453H427.645V285.775H498.941V214.453Z" stroke="#AB5D16" stroke-width="1.07034"/>
<path d="M569.965 214.453H498.668V285.775H569.965V214.453Z" stroke="#AB5D16" stroke-width="1.07034"/>
<path d="M72.0372 357.141H0.740234V428.462H72.0372V357.141Z" stroke="#AB5D16" stroke-width="1.07034"/>
<path d="M143.059 357.141H71.7617V428.462H143.059V357.141Z" stroke="#AB5D16" stroke-width="1.07034"/>
<path d="M72.0372 428.383H0.740234V499.704H72.0372V428.383Z" stroke="#AB5D16" stroke-width="1.07034"/>
<path d="M143.059 428.383H71.7617V499.704H143.059V428.383Z" stroke="#AB5D16" stroke-width="1.07034"/>
<path d="M72.0372 499.391H0.740234V570.712H72.0372V499.391Z" stroke="#AB5D16" stroke-width="1.07034"/>
<path d="M143.059 499.391H71.7617V570.712H143.059V499.391Z" stroke="#AB5D16" stroke-width="1.07034"/>
<path d="M72.0372 570.633H0.740234V641.954H72.0372V570.633Z" stroke="#AB5D16" stroke-width="1.07034"/>
<path d="M143.059 570.633H71.7617V641.954H143.059V570.633Z" stroke="#AB5D16" stroke-width="1.07034"/>
<path d="M214.352 357.141H143.055V428.462H214.352V357.141Z" stroke="#AB5D16" stroke-width="1.07034"/>
<path d="M285.371 357.141H214.074V428.462H285.371V357.141Z" stroke="#AB5D16" stroke-width="1.07034"/>
<path d="M214.352 428.383H143.055V499.704H214.352V428.383Z" stroke="#AB5D16" stroke-width="1.07034"/>
<path d="M285.371 428.383H214.074V499.704H285.371V428.383Z" stroke="#AB5D16" stroke-width="1.07034"/>
<path d="M214.352 499.391H143.055V570.712H214.352V499.391Z" stroke="#AB5D16" stroke-width="1.07034"/>
<path d="M285.371 499.391H214.074V570.712H285.371V499.391Z" stroke="#AB5D16" stroke-width="1.07034"/>
<path d="M214.352 570.633H143.055V641.954H214.352V570.633Z" stroke="#AB5D16" stroke-width="1.07034"/>
<path d="M285.371 570.633H214.074V641.954H285.371V570.633Z" stroke="#AB5D16" stroke-width="1.07034"/>
<path d="M356.629 357.141H285.332V428.462H356.629V357.141Z" stroke="#AB5D16" stroke-width="1.07034"/>
<path d="M427.65 357.141H356.354V428.462H427.65V357.141Z" stroke="#AB5D16" stroke-width="1.07034"/>
<path d="M356.629 428.383H285.332V499.704H356.629V428.383Z" stroke="#AB5D16" stroke-width="1.07034"/>
<path d="M427.65 428.383H356.354V499.704H427.65V428.383Z" stroke="#AB5D16" stroke-width="1.07034"/>
<path d="M356.629 499.391H285.332V570.712H356.629V499.391Z" stroke="#AB5D16" stroke-width="1.07034"/>
<path d="M427.65 499.391H356.354V570.712H427.65V499.391Z" stroke="#AB5D16" stroke-width="1.07034"/>
<path d="M356.629 570.633H285.332V641.954H356.629V570.633Z" stroke="#AB5D16" stroke-width="1.07034"/>
<path d="M427.65 570.633H356.354V641.954H427.65V570.633Z" stroke="#AB5D16" stroke-width="1.07034"/>
<path d="M498.941 357.141H427.645V428.462H498.941V357.141Z" stroke="#AB5D16" stroke-width="1.07034"/>
<path d="M569.965 357.141H498.668V428.462H569.965V357.141Z" stroke="#AB5D16" stroke-width="1.07034"/>
<path d="M498.941 428.383H427.645V499.704H498.941V428.383Z" stroke="#AB5D16" stroke-width="1.07034"/>
<path d="M569.965 428.383H498.668V499.704H569.965V428.383Z" stroke="#AB5D16" stroke-width="1.07034"/>
<path d="M498.941 499.391H427.645V570.712H498.941V499.391Z" stroke="#AB5D16" stroke-width="1.07034"/>
<path d="M569.965 499.391H498.668V570.712H569.965V499.391Z" stroke="#AB5D16" stroke-width="1.07034"/>
<path d="M498.941 570.633H427.645V641.954H498.941V570.633Z" stroke="#AB5D16" stroke-width="1.07034"/>
<path d="M569.965 570.633H498.668V641.954H569.965V570.633Z" stroke="#AB5D16" stroke-width="1.07034"/>
<path d="M214.736 1.42969L356.261 143.003" stroke="#AB5D16" stroke-width="1.07034"/>
<path d="M214.736 500.328L355.904 641.545" stroke="#AB5D16" stroke-width="1.07034"/>
<path d="M356.617 1.07031L214.736 142.644" stroke="#AB5D16" stroke-width="1.07034"/>
<path d="M356.617 499.602L214.736 641.532" stroke="#AB5D16" stroke-width="1.07034"/>
<path d="M570.5 0.5H0.5V642.5H570.5V0.5Z" stroke="#AB5D16"/>
<path d="M78.0605 132.156V137.654H83.5587" stroke="#AB5D16" stroke-linecap="round" stroke-linejoin="round"/>
<path d="M66.5646 154.645V149.148H61.0664" stroke="#AB5D16" stroke-linecap="round" stroke-linejoin="round"/>
<path d="M61.0664 137.653H66.5645V132.156" stroke="#AB5D16" stroke-linecap="round" stroke-linejoin="round"/>
<path d="M83.5586 149.148H78.0605V154.646" stroke="#AB5D16" stroke-linecap="round" stroke-linejoin="round"/>
<path d="M504.914 132.156V137.654H510.412" stroke="#AB5D16" stroke-linecap="round" stroke-linejoin="round"/>
<path d="M493.418 154.645V149.148H487.92" stroke="#AB5D16" stroke-linecap="round" stroke-linejoin="round"/>
<path d="M487.92 137.653H493.418V132.156" stroke="#AB5D16" stroke-linecap="round" stroke-linejoin="round"/>
<path d="M510.412 149.148H504.914V154.646" stroke="#AB5D16" stroke-linecap="round" stroke-linejoin="round"/>
<path d="M433.938 203.125V208.622H439.436" stroke="#AB5D16" stroke-linecap="round" stroke-linejoin="round"/>
<path d="M422.441 225.614V220.117H416.943" stroke="#AB5D16" stroke-linecap="round" stroke-linejoin="round"/>
<path d="M416.943 208.622H422.441V203.125" stroke="#AB5D16" stroke-linecap="round" stroke-linejoin="round"/>
<path d="M439.436 220.117H433.937V225.615" stroke="#AB5D16" stroke-linecap="round" stroke-linejoin="round"/>
<path d="M433.938 417.016V422.513H439.436" stroke="#AB5D16" stroke-linecap="round" stroke-linejoin="round"/>
<path d="M422.441 439.506V434.008H416.943" stroke="#AB5D16" stroke-linecap="round" stroke-linejoin="round"/>
<path d="M416.943 422.514H422.441V417.016" stroke="#AB5D16" stroke-linecap="round" stroke-linejoin="round"/>
<path d="M439.436 434.008H433.937V439.505" stroke="#AB5D16" stroke-linecap="round" stroke-linejoin="round"/>
<path d="M564.393 225.614V220.117H558.894" stroke="#AB5D16" stroke-linecap="round" stroke-linejoin="round"/>
<path d="M558.895 208.622H564.393V203.125" stroke="#AB5D16" stroke-linecap="round" stroke-linejoin="round"/>
<path d="M564.393 439.506V434.008H558.894" stroke="#AB5D16" stroke-linecap="round" stroke-linejoin="round"/>
<path d="M558.895 422.514H564.393V417.016" stroke="#AB5D16" stroke-linecap="round" stroke-linejoin="round"/>
<path d="M290.986 202.125V207.622H296.484" stroke="#AB5D16" stroke-linecap="round" stroke-linejoin="round"/>
<path d="M279.49 224.614V219.117H273.992" stroke="#AB5D16" stroke-linecap="round" stroke-linejoin="round"/>
<path d="M273.992 207.622H279.49V202.125" stroke="#AB5D16" stroke-linecap="round" stroke-linejoin="round"/>
<path d="M296.484 219.117H290.986V224.615" stroke="#AB5D16" stroke-linecap="round" stroke-linejoin="round"/>
<path d="M290.986 416.016V421.513H296.484" stroke="#AB5D16" stroke-linecap="round" stroke-linejoin="round"/>
<path d="M279.49 438.506V433.008H273.992" stroke="#AB5D16" stroke-linecap="round" stroke-linejoin="round"/>
<path d="M273.992 421.514H279.49V416.016" stroke="#AB5D16" stroke-linecap="round" stroke-linejoin="round"/>
<path d="M296.484 433.008H290.986V438.505" stroke="#AB5D16" stroke-linecap="round" stroke-linejoin="round"/>
<path d="M78.0605 487.984V493.482H83.5587" stroke="#AB5D16" stroke-linecap="round" stroke-linejoin="round"/>
<path d="M66.5646 510.475V504.977H61.0664" stroke="#AB5D16" stroke-linecap="round" stroke-linejoin="round"/>
<path d="M61.0664 493.481H66.5645V487.984" stroke="#AB5D16" stroke-linecap="round" stroke-linejoin="round"/>
<path d="M83.5586 504.977H78.0605V510.474" stroke="#AB5D16" stroke-linecap="round" stroke-linejoin="round"/>
<path d="M504.914 487.984V493.482H510.412" stroke="#AB5D16" stroke-linecap="round" stroke-linejoin="round"/>
<path d="M493.418 510.475V504.977H487.92" stroke="#AB5D16" stroke-linecap="round" stroke-linejoin="round"/>
<path d="M487.92 493.481H493.418V487.984" stroke="#AB5D16" stroke-linecap="round" stroke-linejoin="round"/>
<path d="M510.412 504.977H504.914V510.474" stroke="#AB5D16" stroke-linecap="round" stroke-linejoin="round"/>
<path d="M149.035 203.125V208.622H154.533" stroke="#AB5D16" stroke-linecap="round" stroke-linejoin="round"/>
<path d="M137.539 225.614V220.117H132.041" stroke="#AB5D16" stroke-linecap="round" stroke-linejoin="round"/>
<path d="M132.041 208.622H137.539V203.125" stroke="#AB5D16" stroke-linecap="round" stroke-linejoin="round"/>
<path d="M154.533 220.117H149.035V225.615" stroke="#AB5D16" stroke-linecap="round" stroke-linejoin="round"/>
<path d="M149.035 417.016V422.513H154.533" stroke="#AB5D16" stroke-linecap="round" stroke-linejoin="round"/>
<path d="M137.539 439.506V434.008H132.041" stroke="#AB5D16" stroke-linecap="round" stroke-linejoin="round"/>
<path d="M132.041 422.514H137.539V417.016" stroke="#AB5D16" stroke-linecap="round" stroke-linejoin="round"/>
<path d="M154.533 434.008H149.035V439.505" stroke="#AB5D16" stroke-linecap="round" stroke-linejoin="round"/>
<path d="M6.08398 203.125V208.622H11.5821" stroke="#AB5D16" stroke-linecap="round" stroke-linejoin="round"/>
<path d="M11.5821 220.117H6.08398V225.615" stroke="#AB5D16" stroke-linecap="round" stroke-linejoin="round"/>
<path d="M6.08398 417.016V422.513H11.5821" stroke="#AB5D16" stroke-linecap="round" stroke-linejoin="round"/>
<path d="M11.5821 434.008H6.08398V439.505" stroke="#AB5D16" stroke-linecap="round" stroke-linejoin="round"/>
<mask id="mask0_23929_111123" style="mask-type:luminance" maskUnits="userSpaceOnUse" x="73" y="300" width="86" height="36">
<path d="M159 300H73V336H159V300Z" fill="white"/>
</mask>
<g mask="url(#mask0_23929_111123)">
<path d="M97.9804 304.706C101.904 305.785 102.476 299.999 106.309 304.071C110.093 308.09 100.805 306.286 99.2629 306.446C95.9309 306.793 99.9931 309.759 101.229 310.538C102.523 311.355 109.778 313.66 108.013 316.157C107.893 316.328 104.366 317.35 103.98 317.179C102.311 316.443 99.4859 311.662 97.3136 310.777C98.1093 313.471 98.23 315.49 97.3095 318.188C104.55 316.26 108.641 322.759 98.6473 322.92C104.127 328.678 94.4255 325.268 93.2555 325.926C92.0855 326.583 92.2083 330.542 92.6501 330.977C93.3762 331.689 106.324 332.025 108.015 329.656C108.345 338.357 92.1019 334.888 87.9722 331.98C86.5792 330.999 86.072 328.665 83.9345 328.309C83.9406 331.38 76.6671 336.854 74.5317 335.412C72.3103 333.912 76.213 332.868 77.5425 331.66C81.1568 328.371 82.3636 325.732 83.2513 320.899C81.8523 320.283 76.2314 322.034 75.8939 320.549C75.0308 316.748 80.0339 319.709 81.2427 318.864L80.5698 313.479L73.2083 318.866C71.9135 317.37 77.0455 312.942 77.8739 311.769C82.4802 305.258 78.4343 308.012 73.5417 307.408C71.5228 302.743 79.813 306.131 80.5677 305.384C80.0318 299.488 80.6291 300.576 85.9227 300.664C86.477 301.807 83.822 304.663 84.5911 305.377C86.1436 306.821 87.4956 304.026 87.6838 303.999C89.3058 303.758 91.6539 305.917 93.5255 305.322C95.7857 304.603 93.8425 301.95 94.0348 301.051C94.5053 298.862 99.2077 300.606 99.2875 301.665C99.3243 302.143 97.5182 303.552 97.9804 304.702V304.706ZM81.9075 318.87H96.6366C96.8555 317.548 95.0821 318.551 94.675 318.159C94.3007 317.801 94.8469 313.251 94.6219 312.128C92.0651 314.748 89.3365 317.702 85.2558 317.515C87.9885 313.858 93.4887 311.78 93.9612 306.739C91.5149 305.429 90.2774 307.258 88.8824 307.404C87.7922 307.52 84.544 306.704 83.9202 307.413C82.6888 308.813 87.1295 309.013 88.2872 310.086C90.1956 311.854 88.5797 313.384 86.3113 313.457L83.9243 309.433C83.4293 311.58 84.8099 315.914 83.957 317.762C83.46 318.837 81.7275 317.486 81.9095 318.87H81.9075ZM84.587 320.899C86.6692 322.667 85.0411 324.28 85.7304 326.084C86.5363 328.196 88.8865 330.369 89.3037 326.659C89.8356 321.933 89.9174 319.266 84.587 320.899ZM99.3161 320.226H92.6173C91.1999 328.468 96.2991 324.346 99.3161 320.226Z" fill="#AB5D16"/>
<path d="M154.716 334.212C152.329 336.807 148.606 335.361 146.867 332.696C147.806 331.215 149.735 332.022 150.876 331.353C153.9 329.579 151.633 320.074 151.519 317.153C151.451 315.468 152.333 306.88 151.545 306.056C147.295 306.794 139.667 305.078 135.902 306.044C135.143 306.24 135.763 307.436 135.137 307.418C134.482 307.397 135.041 306.505 134.699 306.213C133.419 305.113 130.876 307.509 129.872 307.321C128.452 307.055 126.299 301.118 126.769 300.669C131.887 299.067 131.737 303.603 135.104 304.07C137.702 304.431 149.488 304.497 151.881 304.044C153.853 303.671 155.464 297.705 158.273 302.315C160.793 306.454 156 305.296 155.544 307.733C154.56 312.967 157.052 331.678 154.718 334.214L154.716 334.212Z" fill="#AB5D16"/>
<path d="M147.523 323.252C146.529 326.799 143.876 323.301 143.035 323.036C138.846 321.707 139.31 326.948 137.813 326.948C135.534 326.948 137.441 317.313 137.506 315.803C137.574 314.198 136.258 311.998 137.111 310.752C138.508 309.149 139.889 311.125 141.558 311.123C143.503 311.119 146.674 308.892 147.907 311.479C148.359 312.429 147.523 312.899 147.523 313.137C147.523 315.48 147.995 321.567 147.523 323.252ZM144.135 312.843C143.777 312.493 140.452 312.647 139.809 313.44C139.572 313.735 139.912 320.613 140.167 320.881C140.306 321.025 144.027 321.027 144.166 320.881C144.53 320.502 144.72 313.416 144.135 312.843Z" fill="#AB5D16"/>
<path d="M125.875 326.08C127.034 324.611 127.462 321.95 128.309 320.075C128.91 318.744 129.223 318.104 129.767 316.874C131.08 313.905 132.072 309.713 134.795 308.086C134.754 312.031 132.164 315.471 131.101 318.858C130.688 320.17 130.849 321.57 130.452 322.924C130.027 324.374 128.36 326.939 128.26 328.092C128.096 329.996 131.056 331.697 129.79 334.367C127.229 339.77 125.605 330.212 125.228 328.848C125.026 328.115 124.103 327.392 124.107 327.297C124.118 326.848 125.554 326.488 125.875 326.082V326.08Z" fill="#AB5D16"/>
<path d="M122.75 312.116C125.697 307.448 132.664 315.735 127.761 316.222C124.685 316.529 125.64 312.285 122.75 312.116Z" fill="#AB5D16"/>
</g>
<path d="M236.1 326.02C236.073 325.82 236.073 325.607 236.1 325.38C236.687 325.327 237.107 325.267 237.36 325.2C237.613 325.12 237.74 324.993 237.74 324.82C237.74 324.713 237.7 324.593 237.62 324.46C237.553 324.327 237.46 324.167 237.34 323.98L234.84 320.06L232.06 323.9C231.927 324.1 231.82 324.267 231.74 324.4C231.66 324.533 231.62 324.653 231.62 324.76C231.62 324.947 231.767 325.08 232.06 325.16C232.353 325.24 232.807 325.313 233.42 325.38C233.447 325.607 233.447 325.82 233.42 326.02C233.273 326.02 233.06 326.013 232.78 326C232.513 326 232.22 326 231.9 326C231.58 326 231.287 326 231.02 326C230.753 325.987 230.547 325.98 230.4 325.98C229.973 325.98 229.56 325.987 229.16 326C228.773 326.013 228.427 326.02 228.12 326.02C228.093 325.807 228.093 325.593 228.12 325.38C228.507 325.34 228.833 325.287 229.1 325.22C229.367 325.153 229.607 325.047 229.82 324.9C230.033 324.74 230.253 324.527 230.48 324.26C230.72 323.98 231.007 323.62 231.34 323.18L234.28 319.2L231.38 314.68C231.1 314.24 230.86 313.893 230.66 313.64C230.46 313.387 230.26 313.193 230.06 313.06C229.86 312.927 229.633 312.833 229.38 312.78C229.14 312.713 228.827 312.66 228.44 312.62C228.4 312.407 228.4 312.193 228.44 311.98C228.92 311.98 229.42 311.987 229.94 312C230.473 312.013 230.987 312.02 231.48 312.02C231.773 312.02 232.113 312.02 232.5 312.02C232.9 312.007 233.293 312 233.68 312C234.08 311.987 234.42 311.98 234.7 311.98C234.727 312.18 234.727 312.393 234.7 312.62C234.127 312.673 233.72 312.74 233.48 312.82C233.253 312.887 233.14 313.007 233.14 313.18C233.14 313.273 233.173 313.387 233.24 313.52C233.307 313.653 233.407 313.827 233.54 314.04L235.76 317.52L238.26 314.08C238.54 313.68 238.68 313.4 238.68 313.24C238.68 313.053 238.54 312.92 238.26 312.84C237.993 312.76 237.567 312.687 236.98 312.62C236.94 312.393 236.94 312.18 236.98 311.98C237.167 311.98 237.453 311.987 237.84 312C238.24 312 238.633 312.007 239.02 312.02C239.42 312.02 239.713 312.02 239.9 312.02C240.327 312.02 240.753 312.013 241.18 312C241.607 311.987 241.933 311.98 242.16 311.98C242.2 312.193 242.2 312.407 242.16 312.62C241.773 312.66 241.447 312.713 241.18 312.78C240.927 312.847 240.693 312.953 240.48 313.1C240.267 313.247 240.04 313.46 239.8 313.74C239.56 314.007 239.273 314.367 238.94 314.82L236.3 318.36L239.46 323.32C239.74 323.76 239.98 324.113 240.18 324.38C240.38 324.633 240.58 324.827 240.78 324.96C240.98 325.08 241.207 325.173 241.46 325.24C241.713 325.293 242.033 325.34 242.42 325.38C242.447 325.593 242.447 325.807 242.42 326.02C241.927 326.02 241.427 326.013 240.92 326C240.413 325.987 239.907 325.98 239.4 325.98C239.12 325.98 238.773 325.987 238.36 326C237.96 326 237.553 326 237.14 326C236.74 326.013 236.393 326.02 236.1 326.02ZM247.966 326.02C247.592 326.02 247.206 326.013 246.806 326C246.406 325.987 245.972 325.98 245.506 325.98C245.079 325.98 244.646 325.987 244.206 326C243.779 326.013 243.366 326.02 242.966 326.02C242.926 325.807 242.926 325.6 242.966 325.4C243.419 325.373 243.752 325.333 243.966 325.28C244.179 325.213 244.319 325.08 244.386 324.88C244.452 324.68 244.486 324.36 244.486 323.92V319.44C244.486 318.92 244.466 318.533 244.426 318.28C244.386 318.027 244.259 317.853 244.046 317.76C243.846 317.653 243.492 317.567 242.986 317.5C242.946 317.313 242.946 317.14 242.986 316.98C243.572 316.873 244.132 316.74 244.666 316.58C245.199 316.42 245.712 316.247 246.206 316.06L246.546 316.18C246.532 316.593 246.519 316.98 246.506 317.34C246.506 317.7 246.506 318.04 246.506 318.36V323.72C246.506 324.24 246.532 324.613 246.586 324.84C246.652 325.067 246.786 325.213 246.986 325.28C247.199 325.333 247.526 325.373 247.966 325.4C248.006 325.6 248.006 325.807 247.966 326.02ZM243.966 312.66C243.966 312.273 244.099 311.947 244.366 311.68C244.646 311.413 244.979 311.28 245.366 311.28C245.739 311.28 246.059 311.413 246.326 311.68C246.606 311.947 246.746 312.267 246.746 312.64C246.746 312.987 246.612 313.307 246.346 313.6C246.079 313.88 245.739 314.02 245.326 314.02C244.952 314.02 244.632 313.887 244.366 313.62C244.099 313.353 243.966 313.033 243.966 312.66ZM256.043 326.2C255.163 326.2 254.609 325.76 254.383 324.88C253.436 325.787 252.469 326.24 251.483 326.24C250.803 326.24 250.223 326.04 249.743 325.64C249.276 325.227 249.043 324.66 249.043 323.94C249.043 322.18 250.836 321.073 254.423 320.62C254.423 320.3 254.423 319.973 254.423 319.64C254.436 319.307 254.443 318.953 254.443 318.58C254.443 318.113 254.269 317.753 253.923 317.5C253.589 317.233 253.183 317.1 252.703 317.1C252.356 317.1 252.063 317.153 251.823 317.26C251.823 317.567 251.756 317.88 251.623 318.2C251.489 318.52 251.303 318.793 251.063 319.02C250.836 319.233 250.556 319.34 250.223 319.34C249.929 319.34 249.696 319.26 249.523 319.1C249.363 318.927 249.283 318.72 249.283 318.48C249.283 318.16 249.429 317.86 249.723 317.58C250.029 317.287 250.416 317.04 250.883 316.84C251.349 316.627 251.836 316.46 252.343 316.34C252.849 316.22 253.303 316.16 253.703 316.16C254.196 316.16 254.649 316.253 255.063 316.44C255.489 316.613 255.829 316.88 256.083 317.24C256.349 317.587 256.483 318.02 256.483 318.54C256.483 318.86 256.476 319.28 256.463 319.8C256.449 320.307 256.436 320.853 256.423 321.44C256.423 322.013 256.416 322.56 256.403 323.08C256.389 323.6 256.383 324.02 256.383 324.34C256.383 324.767 256.569 324.98 256.943 324.98C257.183 324.98 257.549 324.9 258.043 324.74C258.096 324.807 258.129 324.88 258.143 324.96C258.169 325.04 258.189 325.113 258.203 325.18C257.869 325.54 257.516 325.8 257.143 325.96C256.783 326.12 256.416 326.2 256.043 326.2ZM254.383 324.34L254.423 321.34C253.196 321.5 252.349 321.76 251.883 322.12C251.429 322.48 251.203 322.94 251.203 323.5C251.203 323.967 251.323 324.327 251.563 324.58C251.816 324.82 252.129 324.94 252.503 324.94C252.743 324.94 253.009 324.887 253.303 324.78C253.609 324.673 253.969 324.527 254.383 324.34ZM265.046 326.02C265.019 325.807 265.019 325.6 265.046 325.4C265.459 325.373 265.766 325.333 265.966 325.28C266.166 325.213 266.299 325.08 266.366 324.88C266.433 324.68 266.466 324.36 266.466 323.92V319.88C266.466 319.08 266.339 318.487 266.086 318.1C265.846 317.7 265.359 317.5 264.626 317.5C264.239 317.5 263.866 317.573 263.506 317.72C263.146 317.853 262.753 318.113 262.326 318.5V323.72C262.326 324.24 262.353 324.613 262.406 324.84C262.473 325.067 262.606 325.213 262.806 325.28C263.006 325.333 263.319 325.373 263.746 325.4C263.773 325.6 263.773 325.807 263.746 326.02C263.373 326.02 262.979 326.013 262.566 326C262.166 325.987 261.733 325.98 261.266 325.98C260.839 325.98 260.419 325.987 260.006 326C259.593 326.013 259.186 326.02 258.786 326.02C258.746 325.807 258.746 325.6 258.786 325.4C259.239 325.373 259.573 325.333 259.786 325.28C259.999 325.213 260.139 325.08 260.206 324.88C260.273 324.68 260.306 324.36 260.306 323.92V319.44C260.306 318.92 260.279 318.533 260.226 318.28C260.186 318.027 260.059 317.853 259.846 317.76C259.646 317.653 259.299 317.567 258.806 317.5C258.766 317.313 258.766 317.14 258.806 316.98C259.953 316.753 261.006 316.447 261.966 316.06L262.306 316.18V317.68C262.919 317.12 263.519 316.727 264.106 316.5C264.693 316.273 265.253 316.16 265.786 316.16C266.666 316.16 267.339 316.42 267.806 316.94C268.273 317.46 268.506 318.207 268.506 319.18V323.72C268.506 324.24 268.533 324.613 268.586 324.84C268.653 325.067 268.786 325.213 268.986 325.28C269.186 325.333 269.506 325.373 269.946 325.4C269.973 325.6 269.973 325.807 269.946 326.02C269.546 326.02 269.153 326.013 268.766 326C268.393 325.987 267.953 325.98 267.446 325.98C266.953 325.98 266.519 325.987 266.146 326C265.786 326.013 265.419 326.02 265.046 326.02ZM274.757 331.1C273.584 331.1 272.637 330.893 271.917 330.48C271.197 330.067 270.837 329.493 270.837 328.76C270.837 328.187 271.037 327.713 271.437 327.34C271.837 326.967 272.33 326.593 272.917 326.22C272.397 326.1 272.004 325.893 271.737 325.6C271.47 325.293 271.337 324.933 271.337 324.52C271.337 323.8 271.864 323.073 272.917 322.34C272.477 322.06 272.124 321.7 271.857 321.26C271.59 320.807 271.457 320.287 271.457 319.7C271.457 318.967 271.644 318.34 272.017 317.82C272.404 317.287 272.904 316.88 273.517 316.6C274.144 316.307 274.81 316.16 275.517 316.16C276.557 316.16 277.424 316.447 278.117 317.02C278.837 316.447 279.544 316.16 280.237 316.16C280.584 316.16 280.857 316.24 281.057 316.4C281.257 316.547 281.357 316.767 281.357 317.06C281.357 317.353 281.264 317.587 281.077 317.76C280.89 317.933 280.664 318.02 280.397 318.02C280.144 318.02 279.924 317.947 279.737 317.8C279.564 317.64 279.45 317.42 279.397 317.14C279.21 317.18 279.057 317.227 278.937 317.28C278.83 317.333 278.704 317.407 278.557 317.5C279.01 318.073 279.237 318.753 279.237 319.54C279.237 320.273 279.057 320.9 278.697 321.42C278.337 321.927 277.857 322.32 277.257 322.6C276.67 322.867 276.024 323 275.317 323C274.65 323 274.03 322.88 273.457 322.64C273.124 322.973 272.957 323.327 272.957 323.7C272.957 324.033 273.084 324.247 273.337 324.34C273.59 324.42 274.057 324.46 274.737 324.46C275.044 324.46 275.41 324.46 275.837 324.46C276.264 324.447 276.577 324.44 276.777 324.44C278.11 324.44 279.07 324.68 279.657 325.16C280.244 325.627 280.537 326.273 280.537 327.1C280.537 327.753 280.377 328.327 280.057 328.82C279.737 329.327 279.304 329.747 278.757 330.08C278.21 330.427 277.59 330.68 276.897 330.84C276.217 331.013 275.504 331.1 274.757 331.1ZM273.777 326.32C273.057 326.92 272.697 327.553 272.697 328.22C272.697 328.687 272.837 329.067 273.117 329.36C273.397 329.653 273.764 329.867 274.217 330C274.67 330.133 275.15 330.2 275.657 330.2C276.11 330.2 276.584 330.133 277.077 330C277.57 329.867 277.99 329.627 278.337 329.28C278.684 328.947 278.857 328.473 278.857 327.86C278.857 327.3 278.657 326.9 278.257 326.66C277.87 326.42 277.144 326.3 276.077 326.3C275.824 326.3 275.51 326.3 275.137 326.3C274.764 326.313 274.35 326.32 273.897 326.32C273.857 326.32 273.817 326.32 273.777 326.32ZM275.357 322.3C275.944 322.3 276.39 322.067 276.697 321.6C277.017 321.12 277.177 320.46 277.177 319.62C277.177 318.767 277.017 318.093 276.697 317.6C276.377 317.107 275.91 316.86 275.297 316.86C274.724 316.86 274.277 317.093 273.957 317.56C273.65 318.013 273.497 318.66 273.497 319.5C273.497 320.353 273.657 321.033 273.977 321.54C274.31 322.047 274.77 322.3 275.357 322.3ZM287.179 331.32C287.139 331.107 287.139 330.9 287.179 330.7C287.699 330.673 288.079 330.627 288.319 330.56C288.572 330.493 288.732 330.36 288.799 330.16C288.879 329.973 288.919 329.667 288.919 329.24V325C288.452 325.44 287.959 325.76 287.439 325.96C286.932 326.147 286.412 326.24 285.879 326.24C284.985 326.24 284.239 326.013 283.639 325.56C283.039 325.107 282.585 324.52 282.279 323.8C281.985 323.08 281.839 322.313 281.839 321.5C281.839 320.513 282.045 319.62 282.459 318.82C282.885 318.007 283.479 317.36 284.239 316.88C285.012 316.4 285.919 316.16 286.959 316.16C287.385 316.16 287.805 316.207 288.219 316.3C288.632 316.393 289.039 316.553 289.439 316.78C289.625 316.7 289.805 316.613 289.979 316.52C290.152 316.413 290.325 316.307 290.499 316.2C290.685 316.213 290.845 316.267 290.979 316.36C290.965 316.627 290.952 316.96 290.939 317.36C290.939 317.76 290.939 318.22 290.939 318.74V329C290.939 329.52 290.965 329.893 291.019 330.12C291.085 330.347 291.225 330.487 291.439 330.54C291.665 330.607 292.012 330.653 292.479 330.68C292.519 330.88 292.519 331.093 292.479 331.32C292.065 331.32 291.645 331.313 291.219 331.3C290.805 331.287 290.339 331.28 289.819 331.28C289.285 331.28 288.812 331.287 288.399 331.3C287.999 331.313 287.592 331.32 287.179 331.32ZM288.939 318.28C288.645 317.827 288.312 317.5 287.939 317.3C287.579 317.087 287.159 316.98 286.679 316.98C285.785 316.98 285.099 317.32 284.619 318C284.152 318.667 283.919 319.6 283.919 320.8C283.919 321.48 284.005 322.14 284.179 322.78C284.365 323.42 284.672 323.947 285.099 324.36C285.525 324.773 286.119 324.98 286.879 324.98C287.252 324.98 287.625 324.92 287.999 324.8C288.385 324.667 288.699 324.46 288.939 324.18V318.28ZM298.161 326.02C297.788 326.02 297.401 326.013 297.001 326C296.601 325.987 296.168 325.98 295.701 325.98C295.274 325.98 294.841 325.987 294.401 326C293.974 326.013 293.561 326.02 293.161 326.02C293.121 325.807 293.121 325.6 293.161 325.4C293.614 325.373 293.948 325.333 294.161 325.28C294.374 325.213 294.514 325.08 294.581 324.88C294.648 324.68 294.681 324.36 294.681 323.92V319.44C294.681 318.92 294.661 318.533 294.621 318.28C294.581 318.027 294.454 317.853 294.241 317.76C294.041 317.653 293.688 317.567 293.181 317.5C293.141 317.313 293.141 317.14 293.181 316.98C293.768 316.873 294.328 316.74 294.861 316.58C295.394 316.42 295.908 316.247 296.401 316.06L296.741 316.18C296.728 316.593 296.714 316.98 296.701 317.34C296.701 317.7 296.701 318.04 296.701 318.36V323.72C296.701 324.24 296.728 324.613 296.781 324.84C296.848 325.067 296.981 325.213 297.181 325.28C297.394 325.333 297.721 325.373 298.161 325.4C298.201 325.6 298.201 325.807 298.161 326.02ZM294.161 312.66C294.161 312.273 294.294 311.947 294.561 311.68C294.841 311.413 295.174 311.28 295.561 311.28C295.934 311.28 296.254 311.413 296.521 311.68C296.801 311.947 296.941 312.267 296.941 312.64C296.941 312.987 296.808 313.307 296.541 313.6C296.274 313.88 295.934 314.02 295.521 314.02C295.148 314.02 294.828 313.887 294.561 313.62C294.294 313.353 294.161 313.033 294.161 312.66ZM300.078 324.76C300.078 324.347 300.218 324 300.498 323.72C300.778 323.427 301.118 323.28 301.518 323.28C301.971 323.28 302.331 323.433 302.598 323.74C302.878 324.033 303.018 324.373 303.018 324.76C303.018 325.16 302.878 325.507 302.598 325.8C302.331 326.093 301.971 326.24 301.518 326.24C301.118 326.24 300.778 326.1 300.498 325.82C300.218 325.527 300.078 325.173 300.078 324.76ZM313.196 324.06C313.329 324.22 313.429 324.373 313.496 324.52C312.389 325.667 311.122 326.24 309.696 326.24C308.776 326.24 307.989 326.02 307.336 325.58C306.682 325.14 306.176 324.553 305.816 323.82C305.469 323.087 305.296 322.273 305.296 321.38C305.296 320.407 305.496 319.527 305.896 318.74C306.296 317.953 306.856 317.327 307.576 316.86C308.309 316.393 309.149 316.16 310.096 316.16C310.589 316.16 311.089 316.233 311.596 316.38C312.102 316.513 312.529 316.727 312.876 317.02C313.222 317.313 313.396 317.687 313.396 318.14C313.396 318.5 313.289 318.773 313.076 318.96C312.862 319.147 312.609 319.24 312.316 319.24C311.916 319.24 311.576 319.06 311.296 318.7C311.016 318.327 310.876 317.833 310.876 317.22C310.636 317.06 310.316 316.98 309.916 316.98C309.436 316.98 309.029 317.1 308.696 317.34C308.376 317.58 308.109 317.9 307.896 318.3C307.696 318.7 307.549 319.133 307.456 319.6C307.362 320.053 307.316 320.5 307.316 320.94C307.316 321.687 307.442 322.353 307.696 322.94C307.949 323.527 308.322 323.993 308.816 324.34C309.309 324.673 309.922 324.84 310.656 324.84C311.082 324.84 311.496 324.78 311.896 324.66C312.309 324.54 312.742 324.34 313.196 324.06ZM319.55 326.24C318.576 326.24 317.723 326.033 316.99 325.62C316.27 325.193 315.71 324.613 315.31 323.88C314.91 323.133 314.71 322.28 314.71 321.32C314.71 320.28 314.916 319.373 315.33 318.6C315.756 317.827 316.35 317.227 317.11 316.8C317.87 316.373 318.743 316.16 319.73 316.16C320.703 316.16 321.55 316.373 322.27 316.8C322.99 317.227 323.55 317.813 323.95 318.56C324.35 319.307 324.55 320.153 324.55 321.1C324.55 322.073 324.336 322.953 323.91 323.74C323.496 324.513 322.916 325.127 322.17 325.58C321.423 326.02 320.55 326.24 319.55 326.24ZM316.97 321.08C316.97 322.44 317.19 323.52 317.63 324.32C318.083 325.107 318.756 325.5 319.65 325.5C320.503 325.5 321.156 325.127 321.61 324.38C322.063 323.62 322.29 322.607 322.29 321.34C322.29 319.993 322.063 318.92 321.61 318.12C321.156 317.32 320.496 316.92 319.63 316.92C318.776 316.92 318.116 317.287 317.65 318.02C317.196 318.753 316.97 319.773 316.97 321.08ZM338.035 326.02C337.995 325.807 337.995 325.6 338.035 325.4C338.435 325.373 338.735 325.333 338.935 325.28C339.135 325.213 339.269 325.08 339.335 324.88C339.415 324.68 339.455 324.36 339.455 323.92V319.88C339.455 319.093 339.335 318.5 339.095 318.1C338.869 317.7 338.395 317.5 337.675 317.5C336.782 317.5 336.022 317.833 335.395 318.5C335.422 318.713 335.435 318.94 335.435 319.18V323.72C335.435 324.24 335.462 324.613 335.515 324.84C335.582 325.067 335.715 325.213 335.915 325.28C336.115 325.333 336.422 325.373 336.835 325.4C336.862 325.6 336.862 325.807 336.835 326.02C336.462 326.02 336.089 326.013 335.715 326C335.342 325.987 334.902 325.98 334.395 325.98C333.902 325.98 333.469 325.987 333.095 326C332.735 326.013 332.389 326.02 332.055 326.02C332.015 325.807 332.015 325.6 332.055 325.4C332.442 325.373 332.729 325.333 332.915 325.28C333.115 325.213 333.249 325.08 333.315 324.88C333.382 324.68 333.415 324.36 333.415 323.92V319.88C333.415 319.093 333.302 318.5 333.075 318.1C332.849 317.7 332.369 317.5 331.635 317.5C330.795 317.5 330.062 317.84 329.435 318.52V323.72C329.435 324.24 329.462 324.613 329.515 324.84C329.582 325.067 329.715 325.213 329.915 325.28C330.129 325.333 330.449 325.373 330.875 325.4C330.902 325.6 330.902 325.807 330.875 326.02C330.502 326.02 330.115 326.013 329.715 326C329.329 325.987 328.882 325.98 328.375 325.98C327.895 325.98 327.462 325.987 327.075 326C326.689 326.013 326.295 326.02 325.895 326.02C325.855 325.807 325.855 325.6 325.895 325.4C326.349 325.373 326.682 325.333 326.895 325.28C327.109 325.213 327.249 325.08 327.315 324.88C327.382 324.68 327.415 324.36 327.415 323.92V319.44C327.415 318.92 327.389 318.533 327.335 318.28C327.295 318.027 327.169 317.853 326.955 317.76C326.755 317.653 326.409 317.567 325.915 317.5C325.875 317.313 325.875 317.14 325.915 316.98C326.475 316.873 327.015 316.747 327.535 316.6C328.055 316.453 328.569 316.273 329.075 316.06L329.415 316.18V317.66C330.495 316.66 331.622 316.16 332.795 316.16C333.529 316.16 334.082 316.313 334.455 316.62C334.829 316.927 335.089 317.307 335.235 317.76C335.809 317.213 336.395 316.813 336.995 316.56C337.595 316.293 338.202 316.16 338.815 316.16C339.695 316.16 340.355 316.42 340.795 316.94C341.249 317.46 341.475 318.207 341.475 319.18V323.72C341.475 324.24 341.502 324.613 341.555 324.84C341.609 325.067 341.735 325.213 341.935 325.28C342.135 325.333 342.442 325.373 342.855 325.4C342.895 325.6 342.895 325.807 342.855 326.02C342.482 326.02 342.109 326.013 341.735 326C341.362 325.987 340.929 325.98 340.435 325.98C339.929 325.98 339.482 325.987 339.095 326C338.722 326.013 338.369 326.02 338.035 326.02Z" fill="#AB5D16"/>
<mask id="mask1_23929_111123" style="mask-type:luminance" maskUnits="userSpaceOnUse" x="413" y="300" width="87" height="36">
<path d="M500 300H413V336H500V300Z" fill="white"/>
</mask>
<g mask="url(#mask1_23929_111123)">
<path d="M491.98 304.886C491.589 305.253 493.097 314.042 491.953 315.654C490.006 315.769 488.33 314.922 486.319 314.978C481.609 315.11 488.998 319.23 490.288 319.756C492.112 320.498 500.019 321.209 500 322.091C499.994 322.378 496.573 325.82 495.674 325.814C494.593 325.806 490.243 322.322 487.977 323.105C487.071 324.068 489.047 332.641 488.561 334.121C488.113 335.483 486.536 335.409 485.345 335.201C485.185 332.569 484.687 329.386 484.599 326.842C484.421 321.634 486.844 316.996 480.628 315.011C480.371 316.994 478.466 318.002 477.275 319.395C484.121 321.428 479.167 321.413 478.699 322.837C478.09 324.684 479.049 327.077 478.088 329.662C476.874 332.927 472.256 336.551 468.576 335.918C472.951 331.204 477.15 327.665 475.926 320.407L464.881 329.17C464.042 329.58 462.666 326.974 462.66 326.812C462.642 326.251 470.685 322.112 472.156 320.984C473.172 320.205 473.441 319.092 474.253 318.348C475.219 317.462 477.267 318.072 477.277 315.353C474.069 313.803 472.497 316.013 469.916 317.031L469.246 300.844C474.96 301.145 480.585 301.58 486.334 301.549C490.478 301.526 491.706 299.817 495.319 303.876C494.751 305.249 492.176 304.707 491.98 304.888V304.886ZM473.431 304.379C469.324 308.38 480.835 309.161 479.944 304.568C479.633 302.971 474.549 303.29 473.431 304.379ZM489.914 304.966C489.194 303.855 483.73 302.967 482.619 303.542V307.582C484.349 307.248 487.478 308.05 488.9 307.627C489.254 307.522 489.991 305.086 489.914 304.966ZM479.907 309.654C479.47 309.068 473.84 308.553 473.331 309.008C472.986 309.977 472.489 313.032 473.347 313.57C474.044 314.007 479.713 313.251 479.954 312.976C480.064 312.853 480.007 309.788 479.909 309.654H479.907ZM489.311 313.659L488.661 309.229C485.565 309.858 481.883 308.503 482.619 312.98L489.311 313.659Z" fill="#AB5D16"/>
<path d="M429.431 312.474C429.411 312.465 429.384 312.465 429.364 312.453H429.358C429.317 312.465 429.276 312.474 429.231 312.486C429.364 312.494 429.497 312.494 429.625 312.494C429.558 312.486 429.497 312.48 429.431 312.474ZM432 309.633H431.992C431.992 309.633 432 309.639 432.006 309.646C432.012 309.639 432.006 309.639 432 309.633ZM429.129 309.046V309.159C429.129 309.141 429.137 309.126 429.137 309.106V308.844C429.129 308.91 429.129 308.978 429.129 309.046Z" fill="#AB5D16"/>
<path d="M436.475 327.823L442.828 326.485L448.507 326.473C447.586 320.204 443.979 324.813 441.525 325.164C440.121 325.366 435.157 325.52 434.469 324.104C433.907 322.958 435.519 322.843 436.14 322.789C437.332 322.674 443.352 322.802 443.826 322.424L441.819 319.745C443.893 320.433 444.649 314.173 444.441 313.41C443.811 311.137 438.368 313.66 436.181 313.025C435.973 312.965 435.196 310.11 433.792 309.618L439.136 310.96C439.344 309.754 439.109 307.101 440.433 306.588C441.705 306.095 448.83 307.952 448.421 305.326C448.401 305.192 447.197 303.026 447.083 302.952C445.685 302.129 436.996 308.647 439.818 300.847C432.977 297.972 439.25 305.813 433.471 304.914C430.106 304.394 435.022 298.998 428.44 300.165C428.273 301.082 428.675 304.658 428.449 304.895C428.161 305.178 421.679 304.673 420.422 304.895C420.107 308.647 428.367 306.136 429.117 306.905C429.19 306.979 429.158 307.573 429.143 308.35C429.137 308.389 429.129 308.437 429.137 308.49V308.733C429.137 308.748 429.129 308.76 429.129 308.775C429.129 308.787 429.137 308.801 429.137 308.816L429.129 308.822V308.828L429.137 308.843V309.104C429.137 309.125 429.129 309.139 429.129 309.158V309.172C429.129 309.214 429.137 309.24 429.158 309.273C429.203 309.341 429.291 309.362 429.378 309.368C430.106 309.463 430.842 309.558 431.579 309.603C431.718 309.618 431.853 309.624 431.992 309.632H432C432 309.632 432.012 309.638 432.006 309.644C432.006 309.644 432.012 309.651 432.012 309.659C432.327 309.995 432.662 310.467 432.822 310.766C433.057 311.203 433.083 311.757 432.889 312.223C432.822 312.372 432.73 312.52 432.583 312.594C432.421 312.681 432.227 312.654 432.047 312.627C431.986 312.621 431.918 312.606 431.859 312.6H431.853C431.745 312.6 431.653 312.594 431.544 312.594C430.97 312.567 430.4 312.532 429.826 312.505C429.758 312.499 429.691 312.499 429.632 312.493H429.626C429.497 312.493 429.364 312.493 429.231 312.485H429.223C427.946 312.734 425.377 312.681 425.15 313.031C424.969 313.316 424.701 319.456 425.097 319.732L432.448 319.064C431.845 323.552 424.394 318.943 422.42 322.43H431.786C432.053 323.214 431.491 325.131 430.782 325.131H420.081C419.966 325.131 419.022 326.04 419.077 326.479H428.776C428.876 326.479 430.535 327.295 430.447 327.491C425.712 332.856 415.986 340.028 418.334 326.811C418.675 324.9 419.077 322.808 419.445 320.988C420.32 316.702 421.826 312.446 423.083 308.268C420.026 307.73 421.517 309.187 420.923 311.116C420.073 313.862 418.616 316.263 417.706 318.685C417.11 320.285 416.233 325.529 415.579 326.318C415.029 326.986 413.157 327.025 413.057 327.161C412.643 327.714 414.608 330.034 414.788 331.156C415.35 334.685 412.307 336.56 419.337 335.851C425.457 335.231 430.862 331.628 434.127 326.493C435.599 327.6 434.957 329.731 435.987 331.02C436.255 331.352 442.649 335.474 443.131 335.623C445.879 336.459 448.039 335.777 449.833 333.563C445.344 331.547 440.407 330.966 436.475 327.823ZM435.123 315.008L440.474 315.016C440.527 317.904 437.103 316.939 435.123 317.032V315.008ZM435.137 319.064C436.22 319.064 441.11 318.64 441.136 320.068C441.163 321.359 434.622 322.134 435.137 319.064ZM427.116 315.346C427.151 314.064 432.247 314.132 432.454 314.34C434.642 316.56 427.037 318.875 427.116 315.346ZM432.341 307.944C432.274 307.932 432.2 307.911 432.16 307.849C432.139 307.816 432.139 307.769 432.139 307.73C432.147 307.552 432.147 307.338 432.213 307.175C432.294 306.985 432.315 307.006 432.521 307C432.93 306.979 433.345 306.979 433.76 306.979C434.595 306.979 435.437 307.014 436.261 307.142C436.261 307.499 436.214 307.864 436.114 308.208C436.107 308.255 436.087 308.303 436.052 308.329C436.013 308.362 435.96 308.356 435.905 308.356C434.708 308.294 433.518 308.154 432.341 307.944Z" fill="#AB5D16"/>
<path d="M417.057 317.705C415.463 318.865 410.436 310.614 415.07 312.012C418.078 312.918 418.943 315.178 417.057 317.705Z" fill="#AB5D16"/>
<path d="M417.578 302.408C418.819 302.946 419.505 305.57 419.074 306.904C418.077 308.145 413.313 300.563 417.578 302.408Z" fill="#AB5D16"/>
<path d="M429.131 308.812H429.137L429.131 308.819V308.812Z" fill="white"/>
<path d="M429.131 309.046C429.131 308.978 429.131 308.912 429.137 308.844V309.108C429.137 309.128 429.131 309.141 429.131 309.161V309.046Z" fill="white"/>
<path d="M429.625 312.492C429.498 312.492 429.363 312.492 429.23 312.486C429.277 312.472 429.318 312.465 429.357 312.453H429.363C429.384 312.468 429.41 312.468 429.431 312.474C429.498 312.48 429.557 312.488 429.625 312.494V312.492Z" fill="white"/>
<path d="M432.006 309.647C432.006 309.647 432 309.641 431.992 309.633H431.998C431.998 309.633 432.012 309.639 432.004 309.647H432.006Z" fill="white"/>
<path d="M429.131 308.773C429.131 308.788 429.137 308.8 429.137 308.815L429.131 308.821V308.773Z" fill="white"/>
<path d="M429.137 308.734C429.137 308.749 429.131 308.761 429.131 308.776V308.734H429.137Z" fill="white"/>
<path d="M429.131 309.046C429.131 308.978 429.131 308.912 429.137 308.844V309.108C429.137 309.128 429.131 309.141 429.131 309.161V309.046Z" fill="white"/>
<path d="M429.131 309.041H429.137V309.101C429.137 309.122 429.131 309.134 429.131 309.154V309.039V309.041Z" fill="white"/>
<path d="M429.137 308.815L429.131 308.821V308.773C429.131 308.788 429.137 308.8 429.137 308.815Z" fill="#AB5D16"/>
<path d="M429.137 308.492V308.735C429.137 308.75 429.131 308.762 429.131 308.777V308.735C429.125 308.655 429.125 308.573 429.137 308.492Z" fill="#AB5D16"/>
</g>
</g>
<defs>
<clipPath id="clip0_23929_111123">
<rect width="571" height="643" fill="white"/>
</clipPath>
</defs>
</svg>
